<?xml version="1.0" encoding="UTF-8"?>
<!-- Generator: Adobe Illustrator 19.1.0, SVG Export Plug-In . SVG Version: 6.00 Build 0)  -->
<!DOCTYPE svg PUBLIC "-//W3C//DTD SVG 1.1//EN" "http://www.w3.org/Graphics/SVG/1.1/DTD/svg11.dtd">
<svg xmlns="http://www.w3.org/2000/svg" xmlns:xlink="http://www.w3.org/1999/xlink" xmlns:dc="http://purl.org/dc/elements/1.1/" xmlns:cc="http://creativecommons.org/ns#" xmlns:rdf="http://www.w3.org/1999/02/22-rdf-syntax-ns#" version="1.1" id="DESIGNS" x="0px" y="0px" width="64px" height="64px" viewBox="0 0 64 64" style="enable-background:new 0 0 64 64;" xml:space="preserve">
<title property="dc:title">to build</title><desc property="dc:description">An icon for "build" from the Fandom series on to [icon]. Downloaded from http://www.toicon.com/icons/fandom_build by 127.0.0.1 on 2017-07-10. Licensed CC-BY, see http://toicon.com/license/ for details.</desc>
<g>
	<g>
		<path class="fandom_vier" d="M32,7C18.193,7,7,18.193,7,32h50C57,18.193,45.807,7,32,7z" style="fill: #FFC865;"/>
		<path class="fandom_drie" d="M32,57c13.807,0,25-11.193,25-25H7C7,45.807,18.193,57,32,57z" style="fill: #BE9148;"/>
	</g>
	<g>
		<path class="fandom_zes" d="M18.262,27.988L4.02,29.99L9,32.521v15.313l14-2.002V30.468L18.262,27.988z M12.567,45.367    c-1.226,0.172-2.225-0.768-2.222-2.091c0.003-1.331,1.006-2.544,2.231-2.716c1.234-0.173,2.225,0.759,2.222,2.091    C14.796,43.974,13.8,45.194,12.567,45.367z M12.579,38.641c-1.226,0.172-2.225-0.768-2.222-2.091    c0.002-1.323,1.006-2.544,2.231-2.716c1.234-0.173,2.225,0.768,2.223,2.091C14.808,37.247,13.813,38.467,12.579,38.641z     M18.799,44.491c-1.234,0.173-2.225-0.768-2.222-2.091c0.002-1.331,0.998-2.543,2.231-2.717c1.226-0.172,2.225,0.759,2.222,2.091    C21.028,43.098,20.024,44.319,18.799,44.491z M18.811,37.765c-1.234,0.173-2.225-0.768-2.222-2.091    c0.002-1.323,0.998-2.543,2.231-2.717c1.226-0.172,2.225,0.768,2.222,2.091C21.04,36.371,20.037,37.593,18.811,37.765z" style="fill: #00B3AA;"/>
		<path class="fandom_vijf" d="M18.808,39.684c1.226-0.172,2.225,0.759,2.222,2.091c-0.002,1.323-1.006,2.544-2.231,2.717    c-1.234,0.173-2.225-0.768-2.222-2.091C16.579,41.069,17.574,39.858,18.808,39.684z M16.589,35.674    c-0.002,1.323,0.989,2.264,2.222,2.091c1.226-0.172,2.229-1.394,2.231-2.717c0.002-1.323-0.997-2.263-2.222-2.091    C17.587,33.131,16.591,34.351,16.589,35.674z M10.344,43.277c-0.002,1.323,0.997,2.263,2.222,2.091    c1.234-0.173,2.229-1.394,2.231-2.717c0.002-1.331-0.989-2.264-2.222-2.091C11.35,40.732,10.347,41.945,10.344,43.277z     M10.357,36.55c-0.002,1.323,0.997,2.263,2.222,2.091c1.234-0.173,2.229-1.394,2.231-2.717c0.002-1.323-0.989-2.264-2.222-2.091    C11.363,34.006,10.359,35.227,10.357,36.55z M9,32.47l-4.991-2.48L4,45.353l5,2.48V32.47z" style="fill: #018273;"/>
		<path class="fandom_acht" d="M45,43.781v15l-2,2V45.85l-9-1.069L37.031,43L45,43.781z M38.613,58.656    c1.18,0,2.137-1.035,2.137-2.311c0-1.276-1.076-2.596-2.627-2.596c-1.18,0-2.216,0.908-2.216,2.184    C35.906,57.21,37.093,58.656,38.613,58.656z M38.136,47.078c-1.188,0-2.23,0.914-2.23,2.198c0,1.284,1.195,2.74,2.724,2.74    c1.188,0,2.15-1.041,2.15-2.325C40.78,48.406,39.697,47.078,38.136,47.078z" style="fill: #6BC4D2;"/>
		<path class="fandom_zeven" d="M34,44.781v15l9,1V45.85L34,44.781z M38.613,58.656c-1.519,0-2.706-1.446-2.706-2.722    c0-1.276,1.036-2.184,2.216-2.184c1.551,0,2.627,1.319,2.627,2.596C40.749,57.622,39.793,58.656,38.613,58.656z M38.63,52.016    c-1.529,0-2.724-1.455-2.724-2.74c0-1.284,1.042-2.198,2.23-2.198c1.561,0,2.644,1.328,2.644,2.612    C40.78,50.974,39.817,52.016,38.63,52.016z" style="fill: #508D9B;"/>
		<path class="fandom_een" d="M60.996,24.633c0.162-0.526-0.771-1.556-2.164-2.36c-1.471-0.849-2.888-1.127-3.175-0.629    c-0.009,0.016-0.017,0.033-0.024,0.051l-2.143-1.174c0.016-0.018,0.031-0.038,0.044-0.059c0.287-0.498-0.67-1.591-2.132-2.435    c-1.471-0.849-2.888-1.127-3.175-0.629c-0.036,0.062-0.052,0.133-0.05,0.212l-2.723-1.491c0.121-0.039,0.211-0.103,0.263-0.193    c0.287-0.498-0.67-1.591-2.132-2.435c-1.471-0.849-2.888-1.127-3.175-0.629c-0.076,0.131-0.063,0.306,0.025,0.507l-2.652-1.453    c0.245-0.018,0.422-0.095,0.504-0.236c0.287-0.498-0.67-1.591-2.132-2.435c-1.471-0.849-2.888-1.127-3.175-0.629    c-0.106,0.184-0.039,0.451,0.162,0.758l-1.318-0.722l-5.259,5.308l30.977,17.226l-4.729,8.422l4.825-5.286l4.487-9.071    L60.996,24.633z" style="fill: #FF786E;"/>
		<path class="fandom_twee" d="M22.366,22.383l4.198-8.422l30.977,17.225l-4.729,8.422L22.366,22.383z M31.93,14.23    c-1.471-0.849-2.419-1.937-2.136-2.428l-0.713,1.235c-0.283,0.491,0.665,1.579,2.136,2.428c0.672,0.388,2.57,1.258,3.115,0.709    l0.713-1.235C34.5,15.487,32.603,14.618,31.93,14.23z M35.115,11.045c-1.471-0.849-2.42-1.937-2.136-2.428l-0.713,1.235    c-0.283,0.491,0.665,1.579,2.136,2.428c0.671,0.387,2.568,1.259,3.115,0.709l0.713-1.235    C37.683,12.304,35.786,11.433,35.115,11.045z M39.361,18.476c-1.471-0.849-2.419-1.937-2.136-2.428l-0.713,1.235    c-0.283,0.491,0.665,1.579,2.136,2.428c0.671,0.387,2.568,1.259,3.115,0.709l0.713-1.235    C41.929,19.734,40.032,18.863,39.361,18.476z M42.546,15.291c-1.471-0.849-2.42-1.938-2.136-2.428l-0.713,1.235    c-0.283,0.491,0.665,1.579,2.136,2.428c0.671,0.387,2.568,1.259,3.115,0.709l0.713-1.235    C45.114,16.55,43.216,15.679,42.546,15.291z M47.178,23.011c-1.471-0.849-2.419-1.938-2.136-2.428l-0.713,1.235    c-0.283,0.491,0.665,1.579,2.136,2.428c0.672,0.388,2.57,1.258,3.115,0.709l0.713-1.235C49.747,24.269,47.85,23.399,47.178,23.011    z M50.362,19.827c-1.471-0.849-2.42-1.937-2.136-2.428l-0.713,1.235c-0.283,0.491,0.665,1.579,2.136,2.428    c0.671,0.387,2.568,1.259,3.115,0.709l0.713-1.235C52.931,21.086,51.033,20.214,50.362,19.827z M54.608,27.257    c-1.471-0.849-2.419-1.937-2.136-2.428l-0.713,1.235c-0.283,0.491,0.665,1.579,2.136,2.428c0.671,0.387,2.568,1.259,3.115,0.709    l0.713-1.235C57.177,28.516,55.279,27.645,54.608,27.257z M57.793,24.073c-1.471-0.849-2.42-1.938-2.136-2.428l-0.713,1.235    c-0.283,0.491,0.665,1.579,2.136,2.428c0.671,0.387,2.568,1.259,3.115,0.709l0.713-1.235    C60.361,25.332,58.464,24.46,57.793,24.073z" style="fill: #BE5652;"/>
	</g>
</g>
<metadata><work rdf:about=""><format>image/svg+xml</format><type rdf:resource="http://purl.org/dc/dcmitype/StillImage"/><license rdf:resource="http://creativecommons.org/licenses/by/4.0/"/><attributionname>Carol Liao</attributionname><attributionurl>http://www.toicon.com/icons/fandom_build</attributionurl></work></metadata></svg>
